<?xml version="1.0" encoding="utf-8"?>
<!-- Generator: Adobe Illustrator 27.0.0, SVG Export Plug-In . SVG Version: 6.00 Build 0)  -->
<svg version="1.1" id="Layer_1" xmlns="http://www.w3.org/2000/svg" xmlns:xlink="http://www.w3.org/1999/xlink" x="0px" y="0px"
	 viewBox="0 0 15 15" style="enable-background:new 0 0 15 15;" xml:space="preserve">
<path d="M0,0.5C0,0.2,0.2,0,0.5,0H2c0.2,0,0.4,0.2,0.5,0.4L2.9,2h11.6C14.8,2,15,2.2,15,2.5c0,0,0,0.1,0,0.1l-1.5,8
	c0,0.2-0.3,0.4-0.5,0.4H4c-0.2,0-0.4-0.2-0.5-0.4L2,2.6L1.6,1H0.5C0.2,1,0,0.8,0,0.5 M5,11c-1.1,0-2,0.9-2,2s0.9,2,2,2s2-0.9,2-2
	S6.1,11,5,11 M12,11c-1.1,0-2,0.9-2,2s0.9,2,2,2s2-0.9,2-2S13.1,11,12,11 M5,12c0.6,0,1,0.4,1,1s-0.4,1-1,1s-1-0.4-1-1S4.4,12,5,12
	 M12,12c0.6,0,1,0.4,1,1s-0.4,1-1,1s-1-0.4-1-1S11.4,12,12,12"/>
</svg>
