<?xml version="1.0" encoding="utf-8"?>
<svg width="120" height="120" version="1.1" id="DRAG" xmlns="http://www.w3.org/2000/svg" xmlns:xlink="http://www.w3.org/1999/xlink" x="0px" y="0px"
	 viewBox="0 0 262 254.9" style="enable-background:new 0 0 262 254.9;" xml:space="preserve">
<style type="text/css">
	.st0{opacity:0.8;}
	.st1{fill:#FFFFFF;}
</style>
<path id="BG" class="st0" d="M259.4,94.2c-9-27.8-38.9-43.1-66.8-34c-3.2,1-6.2,2.4-9.1,3.9c0.8-3.6,1.2-7.3,1.2-11.1
	c0-29.3-23.7-53-53-53c-29.3,0-53,23.7-53,53c0,3.4,0.3,6.7,0.9,9.9c-3.2-1.8-6.6-3.4-10.2-4.6c-27.8-9-57.7,6.2-66.8,34
	c-9,27.8,6.2,57.7,34,66.8c3.2,1,6.4,1.7,9.7,2.2c-2.7,2.5-5.3,5.2-7.5,8.3c-17.2,23.7-12,56.8,11.7,74c23.7,17.2,56.8,12,74-11.7
	c2-2.7,3.7-5.6,5-8.5c1.5,3.4,3.3,6.6,5.6,9.7c17.2,23.7,50.3,28.9,74,11.7c23.7-17.2,28.9-50.3,11.7-74c-2-2.7-4.2-5.2-6.6-7.4
	c3.7-0.4,7.3-1.1,11-2.3C253.2,152,268.4,122.1,259.4,94.2z"/>
<g id="TEXT">
	<path class="st1" d="M82.4,142.6l-10.6-5.3l10.6-5.3V142.6z"/>
	<path class="st1" d="M93.1,143.9l3.5-17.5h7.3c1.8,0,3.3,0.3,4.6,0.9c1.3,0.6,2.3,1.4,3,2.5c0.7,1.1,1,2.4,1,3.9
		c0,1.6-0.3,3-0.8,4.2c-0.5,1.2-1.3,2.3-2.2,3.2c-1,0.9-2.1,1.6-3.5,2.1c-1.3,0.5-2.8,0.7-4.4,0.7H93.1z M97.9,140.6h4
		c1.4,0,2.6-0.3,3.6-0.9c1-0.6,1.8-1.4,2.3-2.4c0.5-1,0.8-2.1,0.8-3.4c0-0.9-0.2-1.6-0.5-2.2c-0.4-0.6-0.9-1.1-1.7-1.5
		c-0.7-0.4-1.7-0.5-2.7-0.5H100L97.9,140.6z"/>
	<path class="st1" d="M113.8,143.9l3.5-17.5h7.1c2.2,0,3.9,0.5,5.1,1.4c1.2,1,1.8,2.3,1.8,4c0,1.5-0.3,2.8-1,3.8
		c-0.7,1.1-1.7,1.9-2.9,2.5c-1.3,0.6-2.8,0.9-4.5,0.9h-5.7l2.1-1.8l-1.3,6.7H113.8z M119.1,137.7l-1.4-1.9h5.2
		c1.3,0,2.4-0.3,3.1-0.9c0.8-0.6,1.1-1.5,1.1-2.6c0-0.9-0.3-1.5-0.8-1.9c-0.6-0.4-1.4-0.6-2.4-0.6H119l2.1-2L119.1,137.7z
		 M125.1,143.9l-3.6-6.4h4.2l3.6,6.4H125.1z"/>
	<path class="st1" d="M129.9,143.9l11.3-17.5h4l4.3,17.5h-4l-3.4-15.5h1.6l-9.5,15.5H129.9z M134.5,140.1l1.7-3.1h9l0.5,3.1H134.5z"
		/>
	<path class="st1" d="M160.3,144.2c-1.8,0-3.3-0.3-4.6-1c-1.3-0.6-2.3-1.5-3-2.7c-0.7-1.1-1.1-2.5-1.1-4c0-1.5,0.3-2.9,0.8-4.2
		c0.5-1.3,1.3-2.4,2.2-3.3c1-0.9,2.1-1.7,3.5-2.2c1.3-0.5,2.8-0.8,4.5-0.8c1.7,0,3.1,0.3,4.3,0.8c1.2,0.5,2.2,1.3,3,2.3l-2.9,2.4
		c-0.6-0.7-1.2-1.2-2-1.5c-0.8-0.3-1.6-0.5-2.6-0.5c-1,0-2,0.2-2.8,0.5s-1.5,0.8-2.1,1.5s-1,1.3-1.3,2.2c-0.3,0.8-0.5,1.7-0.5,2.7
		c0,0.9,0.2,1.7,0.6,2.3c0.4,0.7,1,1.2,1.7,1.5c0.8,0.4,1.7,0.6,2.8,0.6c0.8,0,1.6-0.1,2.4-0.4c0.8-0.3,1.5-0.7,2.2-1.3l1.5,3.1
		c-0.9,0.7-1.9,1.2-3.1,1.6S161.5,144.2,160.3,144.2z M163.4,141.4l1.3-6.6h3.7L167,142L163.4,141.4z"/>
	<path class="st1" d="M179.6,131.9l10.7,5.3l-10.7,5.3V131.9z"/>
</g>
</svg>
