<?xml version="1.0" encoding="utf-8"?>
<!-- Generator: Adobe Illustrator 27.0.0, SVG Export Plug-In . SVG Version: 6.00 Build 0)  -->
<svg version="1.1" id="Layer_1" xmlns="http://www.w3.org/2000/svg" xmlns:xlink="http://www.w3.org/1999/xlink" x="0px" y="0px"
	 viewBox="0 0 12 12" style="enable-background:new 0 0 12 12;" xml:space="preserve">
<path d="M6,6c1.7,0,3-1.3,3-3S7.7,0,6,0S3,1.3,3,3S4.3,6,6,6 M8,3c0,1.1-0.9,2-2,2S4,4.1,4,3s0.9-2,2-2S8,1.9,8,3 M12,11
	c0,1-1,1-1,1H1c0,0-1,0-1-1s1-4,6-4S12,10,12,11 M11,11c0-0.2-0.2-1-0.8-1.7C9.5,8.7,8.3,8,6,8S2.5,8.7,1.8,9.3C1.2,10,1,10.8,1,11
	H11z"/>
</svg>
