<svg width="12" height="12" viewBox="0 0 12 12" fill="none" xmlns="http://www.w3.org/2000/svg">
<g clip-path="url(#clip0_166_34)">
<path d="M6 6C7.7 6 9 4.7 9 3C9 1.3 7.7 0 6 0C4.3 0 3 1.3 3 3C3 4.7 4.3 6 6 6ZM8 3C8 4.1 7.1 5 6 5C4.9 5 4 4.1 4 3C4 1.9 4.9 1 6 1C7.1 1 8 1.9 8 3ZM12 11C12 12 11 12 11 12H1C1 12 0 12 0 11C0 10 1 7 6 7C11 7 12 10 12 11ZM11 11C11 10.8 10.8 10 10.2 9.3C9.5 8.7 8.3 8 6 8C3.7 8 2.5 8.7 1.8 9.3C1.2 10 1 10.8 1 11H11Z" fill="black"/>
</g>
<defs>
<clipPath id="clip0_166_34">
<rect width="12" height="12" fill="white"/>
</clipPath>
</defs>
</svg>
