<svg version="1.1" id="Layer_1" xmlns="http://www.w3.org/2000/svg" xmlns:xlink="http://www.w3.org/1999/xlink" x="0px" y="0px"
	 viewBox="0 0 65 65" style="enable-background:new 0 0 65 65;" xml:space="preserve">
<text transform="matrix(1 0 0 1 382.9389 158.5871)" style="font-family:'MyriadPro-Regular'; font-size:12px;">POCOAR   </text>
<g>
	<path d="M13.4,6.3c0.3-0.2,0.6-0.5,1.1-0.8C15,5.1,15.6,5,16,5c0.4,0.1,0.8,0.3,1,0.7c0.3,0.4,0.4,0.8,0.3,1.2
		c-0.1,0.5-0.5,1-1.1,1.4c-0.2,0.1-0.3,0.2-0.5,0.3l1.2,1.8l-0.6,0.4L13.4,6.3z M15.4,8.1c0.1-0.1,0.3-0.1,0.5-0.3
		c0.7-0.5,0.9-1.1,0.5-1.7c-0.4-0.6-1-0.6-1.7-0.2c-0.3,0.2-0.4,0.3-0.5,0.4L15.4,8.1z"/>
	<path d="M22.9,4.2c0.7,1.7,0.1,3.1-1.2,3.6c-1.3,0.6-2.7,0-3.3-1.6c-0.7-1.6-0.2-3.1,1.2-3.6C21,2,22.3,2.7,22.9,4.2z M19.1,5.9
		c0.5,1.1,1.5,1.8,2.5,1.3c1-0.4,1.2-1.6,0.7-2.8c-0.4-1-1.4-1.8-2.5-1.3C18.7,3.6,18.6,4.9,19.1,5.9z"/>
	<path d="M28.4,5.5C28.1,5.7,27.7,6,27,6.1c-1.5,0.3-2.8-0.3-3.2-2.1c-0.4-1.7,0.5-3,2.1-3.4c0.7-0.2,1.1-0.1,1.3-0.1l0,0.6
		c-0.3-0.1-0.7-0.1-1.1,0c-1.2,0.3-1.9,1.3-1.6,2.7c0.3,1.3,1.2,2,2.5,1.7c0.4-0.1,0.8-0.3,1.1-0.5L28.4,5.5z"/>
	<path d="M33.3,2.6c0.1,1.9-1,2.9-2.4,3c-1.4,0.1-2.5-1-2.6-2.6c-0.1-1.7,0.9-2.9,2.4-3C32.2-0.1,33.2,1,33.3,2.6z M29.1,2.9
		C29.2,4.1,29.9,5.1,31,5c1.1-0.1,1.7-1.1,1.6-2.4c-0.1-1.1-0.7-2.2-1.9-2.1C29.6,0.6,29.1,1.7,29.1,2.9z"/>
	<path d="M35.2,3.9l-0.8,1.6l-0.7-0.1l2.5-5.2L37,0.3L38.2,6l-0.7-0.1l-0.4-1.8L35.2,3.9z M37,3.6l-0.3-1.6c-0.1-0.4-0.1-0.7-0.2-1
		l0,0c-0.1,0.3-0.2,0.6-0.4,0.9l-0.7,1.5L37,3.6z"/>
	<path d="M40.2,1c0.4,0,0.9,0.1,1.3,0.3c0.7,0.2,1.1,0.5,1.4,0.9c0.2,0.3,0.2,0.7,0.1,1.1c-0.2,0.7-0.8,1-1.4,1l0,0
		C42,4.6,42.2,5,42.1,5.6c0,0.8-0.1,1.3,0,1.6l-0.7-0.2c0-0.2,0-0.7,0-1.4c0.1-0.8-0.1-1.1-0.7-1.3l-0.6-0.2l-0.7,2.3l-0.7-0.2
		L40.2,1z M40.2,3.6l0.7,0.2c0.7,0.2,1.3,0,1.5-0.6c0.2-0.7-0.2-1.1-0.9-1.3c-0.3-0.1-0.6-0.1-0.7-0.1L40.2,3.6z"/>
	<path d="M51.8,6.4c0.3,0.2,0.7,0.4,1.1,0.8c0.5,0.4,0.8,0.9,0.9,1.3c0.1,0.4,0,0.8-0.3,1.2c-0.3,0.4-0.7,0.6-1.1,0.6
		c-0.5,0.1-1.1-0.2-1.7-0.6c-0.2-0.1-0.3-0.3-0.4-0.4L48.9,11l-0.5-0.4L51.8,6.4z M50.6,8.9c0.1,0.1,0.2,0.3,0.4,0.4
		c0.7,0.5,1.3,0.5,1.8,0c0.5-0.6,0.3-1.1-0.3-1.6c-0.2-0.2-0.4-0.3-0.5-0.4L50.6,8.9z"/>
	<path d="M56.6,14.8c-1.4,1.2-2.9,1-3.8,0c-0.9-1.1-0.8-2.6,0.5-3.7c1.3-1.1,2.9-1.1,3.8,0C58.1,12.3,57.9,13.8,56.6,14.8z
		 M53.8,11.7c-0.9,0.8-1.3,1.9-0.5,2.8c0.7,0.8,1.9,0.6,2.9-0.2c0.8-0.7,1.3-1.9,0.5-2.8C55.9,10.6,54.7,10.9,53.8,11.7z"/>
	<path d="M57,20.4c-0.2-0.2-0.6-0.5-1-1.1c-0.8-1.3-0.5-2.8,1-3.7c1.5-0.9,3-0.5,3.9,1c0.3,0.6,0.4,1,0.5,1.2l-0.6,0.1
		c0-0.3-0.1-0.7-0.4-1.1c-0.7-1.1-1.8-1.4-3-0.7c-1.1,0.7-1.5,1.8-0.8,2.9c0.2,0.4,0.5,0.7,0.8,0.9L57,20.4z"/>
	<path d="M61.3,24.3c-1.8,0.7-3.1,0-3.6-1.3c-0.5-1.3,0.2-2.7,1.7-3.3c1.6-0.6,3.1,0,3.6,1.3C63.5,22.4,62.8,23.7,61.3,24.3z
		 M59.7,20.4c-1.1,0.4-1.8,1.4-1.4,2.4c0.4,1,1.6,1.3,2.7,0.8c1-0.4,1.9-1.3,1.5-2.4C62,20.1,60.8,19.9,59.7,20.4z"/>
	<path d="M60.6,26.4l-1.8-0.3l-0.1-0.7l5.7,0.9l0.2,0.8l-5,2.8l-0.1-0.7l1.6-0.9L60.6,26.4z M61.5,28.1l1.4-0.8
		c0.3-0.2,0.6-0.3,0.9-0.5l0,0c-0.3,0-0.7-0.1-1-0.1l-1.6-0.2L61.5,28.1z"/>
	<path d="M64.9,30.4c0.1,0.4,0.1,0.9,0.1,1.3c0,0.8-0.1,1.2-0.4,1.6c-0.2,0.3-0.6,0.4-1,0.4c-0.7,0-1.2-0.4-1.4-1l0,0
		c-0.1,0.4-0.5,0.7-1.1,0.8c-0.8,0.2-1.3,0.3-1.5,0.4l0-0.7c0.2-0.1,0.6-0.2,1.3-0.4c0.7-0.2,1-0.5,1-1.1l0-0.7l-2.4,0l0-0.7
		L64.9,30.4z M62.4,31.1l0,0.7c0,0.8,0.4,1.2,1.1,1.2c0.7,0,1-0.5,1-1.3c0-0.3,0-0.6-0.1-0.7L62.4,31.1z"/>
	<path d="M63.2,43c-0.1,0.3-0.2,0.8-0.4,1.3c-0.3,0.6-0.6,1.1-1,1.3c-0.4,0.2-0.8,0.2-1.2,0c-0.5-0.2-0.8-0.5-0.9-0.8
		c-0.2-0.5-0.2-1.1,0.1-1.8c0.1-0.2,0.2-0.4,0.3-0.5l-2-0.8l0.3-0.7L63.2,43z M60.5,42.7c-0.1,0.1-0.2,0.3-0.3,0.5
		c-0.3,0.8-0.1,1.4,0.6,1.7c0.7,0.3,1.2-0.1,1.5-0.8c0.1-0.3,0.2-0.5,0.2-0.6L60.5,42.7z"/>
	<path d="M56.6,50.2c-1.6-1-1.8-2.5-1.1-3.7c0.8-1.2,2.2-1.5,3.6-0.6c1.5,0.9,1.9,2.4,1.1,3.7C59.5,50.8,58,51,56.6,50.2z
		 M58.8,46.5c-1-0.6-2.2-0.6-2.8,0.3c-0.6,1,0,2,1,2.7c0.9,0.6,2.2,0.7,2.8-0.3C60.4,48.2,59.8,47.2,58.8,46.5z"/>
	<path d="M51.4,52.2c0.1-0.3,0.3-0.8,0.8-1.2c1-1.1,2.5-1.4,3.8-0.2c1.3,1.1,1.4,2.8,0.2,4c-0.5,0.5-0.8,0.7-1,0.8l-0.3-0.5
		c0.3-0.1,0.6-0.3,0.9-0.7c0.9-1,0.8-2.1-0.3-3.1c-1-0.9-2.1-0.9-3,0.1c-0.3,0.3-0.5,0.7-0.6,1L51.4,52.2z"/>
	<path d="M49,57.5c-1.2-1.5-0.9-3,0.2-3.8c1.1-0.9,2.6-0.6,3.6,0.7c1.1,1.4,0.9,2.9-0.2,3.8C51.5,59,50,58.7,49,57.5z M52.3,54.8
		c-0.7-0.9-1.9-1.3-2.7-0.7c-0.9,0.7-0.7,1.9,0,2.9c0.7,0.9,1.8,1.4,2.7,0.7C53.2,56.9,53,55.7,52.3,54.8z"/>
	<path d="M46.8,57.4l-0.3-1.8l0.6-0.3l0.9,5.7l-0.7,0.4l-4.2-3.9l0.7-0.4l1.3,1.2L46.8,57.4z M45.5,58.8l1.2,1.1
		c0.3,0.3,0.5,0.5,0.7,0.7l0,0c-0.1-0.3-0.2-0.7-0.2-1L46.9,58L45.5,58.8z"/>
	<path d="M44.3,62.7c-0.3,0.2-0.8,0.4-1.2,0.5c-0.7,0.2-1.2,0.3-1.6,0.1c-0.3-0.1-0.6-0.4-0.7-0.8c-0.2-0.7,0.1-1.3,0.5-1.6l0,0
		c-0.4,0-0.8-0.3-1.1-0.8c-0.4-0.7-0.7-1.1-0.9-1.3l0.7-0.2c0.1,0.1,0.4,0.5,0.8,1.1c0.4,0.7,0.8,0.8,1.4,0.7l0.6-0.2l-0.7-2.2
		l0.7-0.2L44.3,62.7z M42.8,60.6l-0.7,0.2c-0.7,0.2-1,0.8-0.8,1.4c0.2,0.7,0.8,0.8,1.5,0.6c0.3-0.1,0.5-0.2,0.6-0.3L42.8,60.6z"/>
	<path d="M33.7,64.9C33.4,65,32.9,65,32.4,65c-0.7,0-1.2-0.2-1.5-0.5c-0.3-0.3-0.5-0.7-0.5-1.1c0-0.5,0.2-0.9,0.4-1.2
		c0.4-0.4,1-0.6,1.7-0.6c0.2,0,0.4,0,0.6,0.1l0-2.2l0.7,0L33.7,64.9z M33.1,62.3c-0.2,0-0.3-0.1-0.6-0.1c-0.8,0-1.4,0.4-1.4,1.1
		c0,0.7,0.5,1.1,1.3,1.1c0.3,0,0.5,0,0.7,0L33.1,62.3z"/>
	<path d="M24.6,61.4c0.3-1.8,1.6-2.6,3-2.4c1.4,0.3,2.2,1.5,1.9,3.2c-0.3,1.7-1.6,2.6-3,2.4C25.1,64.2,24.4,62.9,24.6,61.4z
		 M28.8,62c0.2-1.1-0.2-2.3-1.3-2.5c-1.1-0.2-1.9,0.7-2.1,1.9c-0.2,1.1,0.2,2.3,1.3,2.5C27.8,64.2,28.6,63.2,28.8,62z"/>
	<path d="M20.9,57.2c0.3,0,0.8,0,1.4,0.3c1.4,0.5,2.2,1.9,1.5,3.5c-0.6,1.6-2.1,2.3-3.7,1.7c-0.6-0.2-1-0.5-1.1-0.7l0.4-0.5
		c0.2,0.2,0.5,0.4,0.9,0.6c1.2,0.5,2.3,0,2.8-1.3c0.5-1.2,0.1-2.3-1.2-2.8c-0.4-0.2-0.8-0.2-1.2-0.2L20.9,57.2z"/>
	<path d="M15.1,56.8c1-1.6,2.4-1.9,3.6-1.2c1.2,0.7,1.5,2.2,0.7,3.6c-0.9,1.5-2.4,1.9-3.6,1.2C14.6,59.7,14.3,58.2,15.1,56.8z
		 M18.8,58.9c0.6-1,0.6-2.2-0.4-2.8c-1-0.6-2,0-2.7,1c-0.6,0.9-0.6,2.2,0.4,2.8C17.1,60.6,18.2,59.9,18.8,58.9z"/>
	<path d="M14.4,54.8l1.6-0.9l0.5,0.5l-5,2.9l-0.6-0.6l2.2-5.3l0.6,0.5l-0.7,1.7L14.4,54.8z M12.7,54L12,55.5
		c-0.1,0.3-0.3,0.6-0.4,0.9l0,0c0.3-0.2,0.6-0.4,0.9-0.6l1.4-0.8L12.7,54z"/>
	<path d="M8.5,54.3c-0.3-0.2-0.6-0.6-0.9-1c-0.5-0.6-0.7-1-0.7-1.5c0-0.4,0.2-0.7,0.5-1c0.6-0.5,1.2-0.4,1.7-0.1l0,0
		c-0.2-0.4,0-0.9,0.3-1.3c0.5-0.6,0.8-1.1,0.9-1.3l0.5,0.6c-0.1,0.2-0.3,0.6-0.8,1.1c-0.5,0.6-0.5,1-0.1,1.5l0.4,0.5l1.8-1.5
		l0.4,0.5L8.5,54.3z M10,52.2l-0.5-0.6C9.1,51,8.4,50.9,8,51.3c-0.5,0.4-0.5,1,0,1.6c0.2,0.3,0.4,0.4,0.5,0.5L10,52.2z"/>
	<path d="M2.7,45.2c-0.2-0.3-0.4-0.7-0.6-1.2c-0.2-0.7-0.3-1.2-0.1-1.6c0.1-0.4,0.4-0.7,0.9-0.8c0.5-0.2,0.9-0.2,1.2,0
		c0.5,0.2,0.9,0.7,1.1,1.4c0.1,0.2,0.1,0.4,0.2,0.5l2-0.8l0.2,0.7L2.7,45.2z M4.9,43.6c0-0.2-0.1-0.3-0.2-0.6
		c-0.3-0.8-0.9-1.1-1.6-0.9c-0.7,0.3-0.8,0.8-0.5,1.6c0.1,0.3,0.2,0.5,0.3,0.6L4.9,43.6z"/>
	<path d="M2.8,35.4c1.8-0.3,3,0.6,3.3,2c0.3,1.4-0.7,2.6-2.3,2.9c-1.7,0.3-3-0.5-3.3-2C0.3,36.9,1.2,35.7,2.8,35.4z M3.7,39.6
		c1.1-0.2,2.1-1,1.9-2.1c-0.2-1.1-1.3-1.5-2.5-1.3c-1.1,0.2-2.1,1-1.9,2.1C1.3,39.4,2.5,39.8,3.7,39.6z"/>
	<path d="M5.3,30.5c0.1,0.3,0.3,0.8,0.3,1.4c0,1.5-0.9,2.7-2.7,2.7c-1.7,0-2.9-1.1-2.9-2.8c0-0.7,0.1-1.1,0.2-1.3l0.6,0.2
		c-0.1,0.3-0.2,0.6-0.2,1.1c0,1.3,0.9,2.1,2.3,2.1c1.3,0,2.2-0.8,2.2-2.1c0-0.4-0.1-0.9-0.2-1.1L5.3,30.5z"/>
	<path d="M3.6,24.9c1.8,0.3,2.6,1.6,2.4,3c-0.2,1.4-1.5,2.2-3.1,1.9c-1.7-0.3-2.6-1.6-2.4-3C0.8,25.4,2,24.6,3.6,24.9z M3,29.1
		c1.1,0.2,2.3-0.2,2.5-1.3c0.2-1.1-0.7-1.9-1.9-2.1c-1.1-0.2-2.3,0.2-2.5,1.3C0.9,28.1,1.8,28.9,3,29.1z"/>
	<path d="M5.3,23.5l1.4,1.1l-0.3,0.7L2,21.6l0.3-0.8L8,21l-0.3,0.7l-1.8,0L5.3,23.5z M5.4,21.6l-1.7,0c-0.4,0-0.7,0-1-0.1l0,0
		c0.3,0.2,0.6,0.4,0.8,0.6l1.3,1L5.4,21.6z"/>
	<path d="M3.6,17.9c0.1-0.3,0.3-0.8,0.6-1.2c0.4-0.7,0.7-1,1.2-1.2c0.3-0.1,0.7-0.1,1.1,0.1c0.6,0.4,0.8,1,0.7,1.6l0,0
		c0.3-0.3,0.8-0.3,1.3-0.2c0.7,0.2,1.3,0.4,1.5,0.4l-0.4,0.6c-0.2,0-0.6-0.1-1.3-0.3c-0.7-0.2-1.1-0.1-1.5,0.4l-0.3,0.6l2.1,1.2
		l-0.3,0.6L3.6,17.9z M6.1,18.5l0.4-0.6c0.4-0.7,0.2-1.3-0.3-1.6c-0.6-0.3-1.1-0.1-1.5,0.6c-0.2,0.3-0.3,0.5-0.3,0.6L6.1,18.5z"/>
</g>
</svg>
